<svg t="1734522334712" class="icon" viewBox="0 0 1024 1024" version="1.1"
  xmlns="http://www.w3.org/2000/svg" p-id="55925" width="200" height="200">
  <path
    d="M480.038826 42.642239a31.587265 31.686531 89 1 0 63.363409-1.106012 31.587265 31.686531 89 1 0-63.363409 1.106012Z"
    fill="#4F5384" p-id="55926"></path>
  <path
    d="M72.342379 286.688734a31.587265 31.686531 89 1 0 63.363409-1.106013 31.587265 31.686531 89 1 0-63.363409 1.106013Z"
    fill="#4F5384" p-id="55927"></path>
  <path
    d="M903.859438 722.348583a31.587265 31.686531 89 1 0 63.363409-1.106013 31.587265 31.686531 89 1 0-63.363409 1.106013Z"
    fill="#4F5384" p-id="55928"></path>
  <path
    d="M888.079671 272.449986a31.587265 31.686531 89 1 0 63.363409-1.106012 31.587265 31.686531 89 1 0-63.363409 1.106012Z"
    fill="#4F5384" p-id="55929"></path>
  <path
    d="M64.359562 737.002107a31.587265 31.686531 89 1 0 63.36341-1.106012 31.587265 31.686531 89 1 0-63.36341 1.106012Z"
    fill="#4F5384" p-id="55930"></path>
  <path
    d="M480.600388 982.462762a31.587265 31.686531 89 1 0 63.363409-1.106013 31.587265 31.686531 89 1 0-63.363409 1.106013Z"
    fill="#4F5384" p-id="55931"></path>
  <path
    d="M564.673306 463.673469c-3.500408 0.940408-7.188898 0.81502-11.363265-0.762775l-0.778449-0.167184c-7.732245-3.970612-11.039347-13.588898-8.04049-24.62302l0.658286-1.661388c4.843102-9.581714 6.912-20.004571 6.624653-33.410612-0.156735-21.446531-8.59951-41.769796-24.257306-57.573878a80.786286 80.786286 0 0 0-56.999184-24.670041c-21.138286 0-41.451102 8.526367-56.659592 23.875919-15.527184 15.516735-23.729633 36.14302-23.922939 57.673143 0.114939 24.069224 9.978776 45.594122 28.57796 62.448326a19.04849 19.04849 0 0 1 5.611102 12.820898 16.352653 16.352653 0 0 1-5.198368 12.376816c-2.941388 3.030204-8.693551 6.154449-13.176163 6.144-2.575673-0.052245-7.037388 0.031347-11.086367-4.184816-24.440163-20.594939-39.094857-53.20098-38.953796-87.572898a117.049469 117.049469 0 0 1 33.488979-82.844735c21.577143-21.995102 50.661878-33.985306 81.397551-33.969632 63.806694 0.156735 115.800816 52.971102 115.900082 117.404735a127.712653 127.712653 0 0 1-10.004898 49.841632l-0.830694 1.342694-1.180735 1.055347c-1.671837 2.319673-5.276735 5.240163-9.806367 6.452245z m105.722776 71.983021l1.63004 124.604081-0.846367 0.856817c-0.292571 0.282122-0.574694 0.564245-0.574694 0.851592v0.564244l-0.276898 0.574694-20.412081 39.450123c1.12849 3.192163 2.267429 6.60898 2.267428 9.51902 0 13.00898-11.556571 24.52898-24.450612 24.52898h-161.750204c-12.977633 0-24.455837-11.582694-24.455837-24.52898 0-3.761633 0.851592-6.394776 1.697959-8.667428l-58.336653-72.933878c-9.707102-12.930612-20.908408-38.598531-2.549551-54.16751 6.023837-4.336327 12.052898-6.321633 20.417306-6.321633h0.56947c10.062367 1.708408 20.124735 8.030041 29.622857 18.688l0.574694 0.579919 9.487673 10.375836V435.069388c0-15.495837 10.919184-40.019592 39.915102-40.019592 14.027755 0 22.956408 6.03951 27.846531 10.950531 12.329796 12.366367 12.329796 28.786939 12.329796 29.356408v53.310694c4.336327-2.068898 9.508571-3.202612 15.81453-3.202613 9.42498 0 17.219918 3.202612 23.531102 9.52947 0.851592 0.924735 1.697959 1.776327 2.267429 2.910041 7.439673-9.456327 16.660898-13.505306 27.574857-12.366368 16.08098 1.426286 23.808 13.792653 28.139102 24.16849 4.81698-2.910041 10.276571-5.475265 18.64098-5.475265 25.584327 0 31.326041 27.376327 31.326041 31.425306z m-40.259919 187.59053c4.890122 0 10.062367-4.346776 10.349715-10.093714 0-6.044735-4.038531-10.098939-10.062368-10.098939H468.950204c-6.018612 0-10.062367 4.054204-10.062367 10.093715 0 6.034286 4.043755 10.08849 10.062367 10.088489h161.17551l0.010449 0.010449z"
    fill="#4F5384" p-id="55932"></path>
</svg>